<svg xmlns="http://www.w3.org/2000/svg" width="24.178" height="22.2" viewBox="0 0 24.178 22.2">
    <path data-name="Fill 348" d="M17.445 22.2H6.734a3.661 3.661 0 0 1-3.578-3.134L1.632 9.008a3.788 3.788 0 0 1-.024-.37h-.4a1.234 1.234 0 0 1 0-2.468h6.045V4.936a4.837 4.837 0 1 1 9.671 0V6.17h6.045a1.234 1.234 0 0 1 0 2.468h-.4c0 .123-.012.249-.024.37l-1.522 10.058a3.661 3.661 0 0 1-3.578 3.134zM4.026 8.638l1.523 10.057a1.211 1.211 0 0 0 1.185 1.05h10.711a1.211 1.211 0 0 0 1.185-1.05l1.523-10.057H4.026zm8.063-6.17a2.446 2.446 0 0 0-2.418 2.468V6.17h4.836V4.936a2.446 2.446 0 0 0-2.418-2.468zm3.627 14.809a1.223 1.223 0 0 1-1.209-1.235v-3.7a1.209 1.209 0 1 1 2.418 0v3.7a1.223 1.223 0 0 1-1.209 1.235zm-3.627 0a1.223 1.223 0 0 1-1.209-1.235v-3.7a1.209 1.209 0 1 1 2.418 0v3.7a1.223 1.223 0 0 1-1.209 1.235zm-3.627 0a1.223 1.223 0 0 1-1.209-1.235v-3.7a1.209 1.209 0 1 1 2.418 0v3.7a1.223 1.223 0 0 1-1.209 1.235z" style="fill:#fff"/>
</svg>
