<svg data-name="card / choose" xmlns="http://www.w3.org/2000/svg" width="40" height="39.646" viewBox="0 0 40 39.646">
    <rect width="40" height="39.646" rx="19.823" style="opacity:.1;fill:#1dbf73"/>
    <g data-name="icon / shop">
        <path d="M.493 1.978a1.088 1.088 0 0 0 .45-1C.943.536.642.273 0 0v2.2a1.765 1.765 0 0 0 .493-.222z" transform="translate(20.833 20.789)" style="fill:#1dbf73"/>
        <path d="M10 19.823A9.967 9.967 0 0 1 0 9.911a10 10 0 0 1 20 0 9.968 9.968 0 0 1-10 9.912zM6.166 12.4 5.6 13.956l.783.28a10.952 10.952 0 0 0 2.783.6v1.682h1.667v-1.75a3.655 3.655 0 0 0 1.451-.56 2.718 2.718 0 0 0 1.159-2.354c0-1.613-1.254-2.275-2.61-2.75V6.243a4.962 4.962 0 0 1 1.579.443l.73.4.8-1.448-.731-.4a7.112 7.112 0 0 0-2.38-.654V3.3H9.166v1.272a4.018 4.018 0 0 0-1.566.475 2.416 2.416 0 0 0-1.227 2.164c0 1.833 1.412 2.583 2.793 3.075v2.9a9.178 9.178 0 0 1-2.216-.5z" style="fill:#1dbf73" transform="translate(10 9.912)"/>
        <path data-name="Path" d="M.411.229A.768.768 0 0 0 0 .971c0 .625.357.966 1.127 1.3V0a2.166 2.166 0 0 0-.716.229z" transform="translate(18.04 16.153)" style="fill:#1dbf73"/>
    </g>
</svg>
