<svg data-name="card / color" xmlns="http://www.w3.org/2000/svg" width="40" height="39.646" viewBox="0 0 40 39.646">
    <defs>
        <linearGradient id="lwv59e3u8a" x1=".5" x2=".5" y2="1" gradientUnits="objectBoundingBox">
            <stop offset="0" stop-color="#6c4dda" stop-opacity=".6"/>
            <stop offset="1" stop-color="#522ed2"/>
        </linearGradient>
    </defs>
    <g data-name="card / choose">
        <rect width="40" height="39.646" rx="19.823" style="fill:url(#lwv59e3u8a);opacity:.1"/>
        <g data-name="icon / shop">
            <path d="M10 19.823A9.967 9.967 0 0 1 0 9.911a10 10 0 0 1 20 0 9.968 9.968 0 0 1-10 9.912zM9.712 1.666a8.358 8.358 0 0 0-4.354 1.39A7.477 7.477 0 0 1 5.8 3.7c.268.446 1.547 2.744.384 4.234a3.914 3.914 0 0 1-1.962 1.142c-1 .337-1.2.477-1.2.836 0 .76.342 1.023.859 1.421a5.888 5.888 0 0 1 .562.471c.639.629 1.5 2.026.128 4.312a.16.16 0 0 1-.012.017l-.01.013a8.336 8.336 0 0 0 13.784-6.235A8.133 8.133 0 0 0 16.7 5.025a17.827 17.827 0 0 1-3.011.749h-.148a1.275 1.275 0 0 1-1.4-1.276c0-.066 0-.14.007-.219a1 1 0 0 0-.1-.654 2.037 2.037 0 0 0-.68-.468 2.8 2.8 0 0 1-.546-.331 5.1 5.1 0 0 1-1.11-1.16z" style="fill:url(#lwv59e3u8a)" transform="translate(10 9.912)"/>
            <path d="M3.812 0A4.29 4.29 0 0 0 .476 1.539 2.2 2.2 0 0 0 .1 3.551 4.742 4.742 0 0 1 .3 6.6a1.87 1.87 0 0 0 1.1 2.5 2.214 2.214 0 0 0 .835.157 5.022 5.022 0 0 0 3.287-1.7 6.323 6.323 0 0 0 2.04-4.266A3.537 3.537 0 0 0 3.812 0z" transform="translate(19.116 17.266)" style="fill:url(#lwv59e3u8a)"/>
        </g>
    </g>
</svg>
