<svg data-name="card / color" xmlns="http://www.w3.org/2000/svg" width="40" height="39.646" viewBox="0 0 40 39.646">
    <defs>
        <linearGradient id="01fw1hbaua" x1=".5" x2=".5" y2="1" gradientUnits="objectBoundingBox">
            <stop offset="0" stop-color="#466fff" stop-opacity=".6"/>
            <stop offset="1" stop-color="#3462ff"/>
        </linearGradient>
    </defs>
    <g data-name="card / choose">
        <rect width="40" height="39.646" rx="19.823" style="fill:url(#01fw1hbaua);opacity:.1"/>
        <g data-name="icon / shop">
            <path d="M3.735.222a.807.807 0 0 0-1.121.01.783.783 0 0 0-.014 1.107l2.26 2.228-1.054 1.04L1.55 2.379a.807.807 0 0 0-.778-.215.8.8 0 0 0-.572.564.784.784 0 0 0 .219.772l2.046 2.017a4.08 4.08 0 0 1-1.825.3A2.8 2.8 0 0 1 0 7.335a5.742 5.742 0 0 0 .908.079A5.622 5.622 0 0 0 4.868 5.8l1.686-1.691a.783.783 0 0 0 0-1.115z" transform="translate(19.497 20.321)" style="fill:url(#01fw1hbaua)"/>
            <path data-name="Path" d="M1.46 9.365a2.874 2.874 0 0 1 .818-.553 4.732 4.732 0 0 1 .167-5.163 4.869 4.869 0 0 1 4.823-2l.346-.342a7.332 7.332 0 0 1 1.108-.9 6.505 6.505 0 0 0-7.31 1.987 6.31 6.31 0 0 0-.353 7.48 2.871 2.871 0 0 1 .401-.509z" transform="translate(10 10.739)" style="fill:url(#01fw1hbaua)"/>
            <path data-name="Rectangle" d="M0 2.089A2.1 2.1 0 0 1 2.083 0l5.3-.033A2.049 2.049 0 0 1 9.454 2.03h-.007a2.1 2.1 0 0 1-2.085 2.089l-5.3.033A2.049 2.049 0 0 1-.009 2.089z" transform="rotate(45 -16.41 25.9)" style="fill:url(#01fw1hbaua)"/>
            <path data-name="Path" d="M12.841 1.868a6.514 6.514 0 0 0-9.131 0L0 5.53l.566.559a2.522 2.522 0 0 0 3.531 0l1.435-1.415 6.739 6.775.571-.564a6.321 6.321 0 0 0 0-9.018z" transform="translate(14.471 10.738)" style="fill:url(#01fw1hbaua)"/>
            <path data-name="Rectangle" transform="translate(10.003 9.912)" style="fill:none" d="M0 0h20v19.823H0z"/>
        </g>
    </g>
</svg>
