<svg data-name="card / color" xmlns="http://www.w3.org/2000/svg" width="40" height="39.646" viewBox="0 0 40 39.646">
    <defs>
        <linearGradient id="7q55jpfrga" x1=".5" x2=".5" y2="1" gradientUnits="objectBoundingBox">
            <stop offset="0" stop-color="#ffe00d"/>
            <stop offset="1" stop-color="#fea127"/>
        </linearGradient>
    </defs>
    <g data-name="card / choose">
        <rect width="40" height="39.646" rx="19.823" style="fill:url(#7q55jpfrga);opacity:.1"/>
        <g data-name="icon / shop">
            <path d="M5 12.472a.9.9 0 0 1-.584-.248C3.965 11.777 0 7.773 0 4.956A4.931 4.931 0 0 1 5 0a4.931 4.931 0 0 1 5 4.956c0 2.817-3.965 6.821-4.417 7.268a.9.9 0 0 1-.583.248zM5 3.3a1.652 1.652 0 1 0 1.667 1.656A1.662 1.662 0 0 0 5 3.3z" transform="translate(20 16.52)" style="fill:url(#7q55jpfrga)"/>
            <path d="M5 9a2.719 2.719 0 0 0 2.083.909 2.761 2.761 0 0 0 1.583-.5A6.672 6.672 0 0 1 15 4.956a7.157 7.157 0 0 1 2.917.661l-3-5.2a.877.877 0 0 0-.75-.417h-10a.877.877 0 0 0-.75.413L.083 6.195A.739.739 0 0 0 0 6.608c0 1.982 1.167 3.3 2.917 3.3A2.719 2.719 0 0 0 5 9z" style="fill:url(#7q55jpfrga)" transform="translate(10 9.912)"/>
            <path data-name="Path" d="M5.833.5V.33a6.487 6.487 0 0 1-1.25.17A4.551 4.551 0 0 1 2.5 0 4.551 4.551 0 0 1 .417.5H0v5.777a.784.784 0 0 0 .833.823h8.25c-1.5-1.731-3.25-4.374-3.25-6.6z" transform="translate(12.5 20.98)" style="fill:url(#7q55jpfrga)"/>
        </g>
    </g>
</svg>
