<svg data-name="card / color" xmlns="http://www.w3.org/2000/svg" width="40" height="39.646" viewBox="0 0 40 39.646">
    <g data-name="card / choose">
        <rect width="40" height="39.646" rx="19.823" style="opacity:.1;fill:#fe2121"/>
        <path d="M7.5 19.823a.742.742 0 0 1-.584-.259 43.592 43.592 0 0 1-3.552-4.288 25.711 25.711 0 0 1-2.319-3.784A8.918 8.918 0 0 1 0 7.757a8.059 8.059 0 0 1 .656-3.248 7.421 7.421 0 0 1 1.719-2.44A7.562 7.562 0 0 1 7.5 0a7.562 7.562 0 0 1 5.125 2.069 7.421 7.421 0 0 1 1.719 2.44A8.059 8.059 0 0 1 15 7.757a8.918 8.918 0 0 1-1.046 3.736 25.711 25.711 0 0 1-2.319 3.784 43.592 43.592 0 0 1-3.552 4.288.742.742 0 0 1-.583.258zm0-14.652A2.488 2.488 0 0 0 5 7.757a2.5 2.5 0 1 0 5 0 2.488 2.488 0 0 0-2.5-2.585z" style="fill:#fe2121" transform="translate(12.5 9.912)" data-name="icon / shop"/>
    </g>
</svg>
