<svg xmlns="http://www.w3.org/2000/svg" width="94" height="94" viewBox="0 0 94 94">
    <circle cx="47" cy="47" r="47" style="opacity:.1;fill:#ff2e36"/>
    <path d="M4.207 1.666A.8.8 0 0 0 4.232.535L3.96.249A.8.8 0 0 0 3.4 0a.822.822 0 0 0-.572.222.718.718 0 0 0-.109.129L0 4.407c.292.138.58.288.861.454z" transform="translate(64.946 30.61)" style="fill:#ff2e36"/>
    <path d="M17.694 14.768A18.019 18.019 0 0 1 0 0c4.894 3.14 16.844 4.768 28.694 4.768S52.494 3.14 57.388 0a18.019 18.019 0 0 1-17.694 14.768z" transform="translate(17.306 58.232)" style="fill:#ff2e36"/>
    <path d="M0 13.851 1.654 3.1a3.663 3.663 0 0 1 7.24 0l1.567 10.184-6.809 3.4z" transform="translate(45.726 15.002)" style="fill:#ff2e36"/>
    <path d="M0 25.088A14.023 14.023 0 0 0 5.324 14.11c0-.208-.023-.41-.031-.617l7.324 7.323 1.415-1.416-8-8-.846.846a13.826 13.826 0 0 0-.569-2.507L9.25 3.723a8.98 8.98 0 0 1 .919-1.023l.168-.162a9 9 0 1 1 12.426 13.025l-.17.163a8.939 8.939 0 0 1-1.062.869L9.624 24.906c-2.282.131-4.717.2-7.3.2-.79.004-1.562-.006-2.324-.018z" transform="translate(43.676 35.89)" style="fill:#ff2e36"/>
    <path d="M.726 5.848c.233.244.448.5.654.758l5.1-4.868A1 1 0 1 0 5.1.291L3.075 2.224 0 5.159c.248.218.493.441.726.689z" transform="translate(67.46 31.499)" style="fill:#ff2e36"/>
    <path d="M3.345.221 0 3.414q.228.433.413.881l4.174-2.521A.8.8 0 0 0 4.753.535L4.48.249A.8.8 0 0 0 3.918 0a.814.814 0 0 0-.573.221z" transform="translate(69.948 36.398)" style="fill:#ff2e36"/>
    <path d="M11.791 0a10.97 10.97 0 0 1-1.185 1.352l-.17.162a10.94 10.94 0 0 1-1.3 1.062L0 8.952c11.228-1.052 17.784-3.569 17.784-5.5 0-.817-1.591-2.188-5.993-3.452z" transform="translate(57.216 51.548)" style="fill:#ff2e36"/>
    <path d="M1.283 0A24.534 24.534 0 0 0 0 5.713l5.252-2.626z" transform="translate(42.142 29.6)" style="fill:#ff2e36"/>
    <path d="m5.4 14.148 3.942-5.124a11.038 11.038 0 0 1 1.121-1.247l.169-.162A10.948 10.948 0 0 1 17.683 4.6 23.542 23.542 0 0 0 16.5 0L.008 8.244c0 .1-.007.186-.008.283a14.087 14.087 0 0 1 5.4 5.621z" transform="translate(42.003 29.369)" style="fill:#ff2e36"/>
    <path d="M4.764 33.561A11.986 11.986 0 0 1 11 12.051C10.958 7.165 10.644 2 8 2V0c4.51 0 4.951 6.049 5 12.05a11.992 11.992 0 0 1 4.091 22.816 94.2 94.2 0 0 1-12.327-1.305z" transform="translate(22.999 26)" style="fill:#ff2e36"/>
    <path d="M7.12 6.653A14.067 14.067 0 0 1 4.185 0C1.126 1.1 0 2.21 0 2.873c0 1.2 2.526 2.62 7.12 3.78z" transform="translate(17 52.127)" style="fill:#ff2e36"/>
    <path d="M4.9 4h4.9a5.009 5.009 0 0 0-4.9-4H0a5.008 5.008 0 0 0 4.9 4z" transform="translate(24.1 32)" style="fill:#ff2e36"/>
</svg>
