<svg xmlns="http://www.w3.org/2000/svg" width="94" height="94" viewBox="0 0 94 94">
    <circle cx="47" cy="47" r="47" style="opacity:.1;fill:#ff2e36"/>
    <path d="M20 51.718a4.291 4.291 0 0 1-4.287-4.286v-7.873a2.535 2.535 0 0 0 .858.158 2.575 2.575 0 0 0 2.571-2.571V29.43a.858.858 0 0 1 1.715 0V32A2.572 2.572 0 0 0 26 32v-5.142a.858.858 0 0 1 .856-.858h4.811a9.441 9.441 0 0 0-.526 3.1v20.051a4.244 4.244 0 0 0 .879 2.571zm15.431 0a2.574 2.574 0 0 1-2.571-2.57v-.859h18.857v.859a2.573 2.573 0 0 1-2.571 2.57zm-2.572-5.144V29.429h18.857v17.145zM7.078 42.346a8.572 8.572 0 0 1-2.509-6.063 8.573 8.573 0 0 1 8.573-8.573c.29 0 .575.015.858.043v3.462a4.974 4.974 0 0 0-.858-.076 5.144 5.144 0 1 0 0 10.287 4.885 4.885 0 0 0 .858-.072v3.462a8.997 8.997 0 0 1-.858.041 8.571 8.571 0 0 1-6.064-2.511zm8.635-5.2V24.283h-.858a2.571 2.571 0 1 1 .983-4.943l.642.265.392-.572A1.71 1.71 0 0 1 20 20h1.715a3.424 3.424 0 0 0-.257-1.3 1.708 1.708 0 0 1 2.83 1.3H26a3.409 3.409 0 0 0-.615-1.949 2.58 2.58 0 0 1 2.328-1.48A2.554 2.554 0 0 1 30.006 18l.321.648.692-.207a3.344 3.344 0 0 1 4.316 2.548 7.528 7.528 0 0 1-.9.924 9.442 9.442 0 0 0-1.983 2.365h-5.6a2.575 2.575 0 0 0-2.571 2.571V32a.858.858 0 0 1-1.715 0v-2.577a2.571 2.571 0 0 0-5.143 0v7.717a.856.856 0 0 1-1.712.005zm17.278-9.43a7.721 7.721 0 0 1 2.567-4.493 9.426 9.426 0 0 0 1.984-2.365h9.49a9.449 9.449 0 0 0 1.985 2.365 7.713 7.713 0 0 1 2.567 4.493zm5.342-8.573a9.406 9.406 0 0 0 .526-3.094V14h6.858v2.049a9.428 9.428 0 0 0 .525 3.094zM8 19a2.785 2.785 0 0 1-3-2.5A2.785 2.785 0 0 1 8 14a2.783 2.783 0 0 1 3 2.5 2.784 2.784 0 0 1-2.768 2.51q-.116 0-.232-.01zm6-8.5a2.5 2.5 0 1 1 2.5 2.5 2.5 2.5 0 0 1-2.5-2.5zm24.858-1.644h6.858v3.427h-6.858zM0 8.5A2.5 2.5 0 1 1 2.5 11 2.5 2.5 0 0 1 0 8.5zm37.144-1.359a.857.857 0 0 1 0-1.714h10.287a.857.857 0 1 1 0 1.714zM18 3.5A2.5 2.5 0 1 1 20.5 6 2.5 2.5 0 0 1 18 3.5zm-12-1A2.5 2.5 0 1 1 8.5 5 2.5 2.5 0 0 1 6 2.5zm32.859 1.21v-.857A.857.857 0 0 1 39.717 2h5.144a.858.858 0 0 1 .857.857v.858z" transform="translate(21 20.999)" style="fill:#ff2e36"/>
</svg>
