<svg xmlns="http://www.w3.org/2000/svg" width="94" height="94" viewBox="0 0 94 94">
    <circle cx="47" cy="47" r="47" style="opacity:.1;fill:#ff2e36"/>
    <path d="M15.092 22.707a5.009 5.009 0 0 1-2.525-4.346 13.925 13.925 0 0 1 13.91-13.91h5.732L32.479 0H0l2.337 38.492A1.669 1.669 0 0 0 4 40.06h10.237a8.3 8.3 0 0 1-1.674-5.008 5.016 5.016 0 0 1 3.307-4.71 6.653 6.653 0 0 1 0-7.276c-.533-.121-.84-.242-.778-.359z" transform="translate(21.121 35.914)" style="fill:#ff2e36"/>
    <path d="M18.359 13.576h16.693a1.669 1.669 0 1 0 0-3.338h-13.61l4.5-6.9h5.773a1.669 1.669 0 0 0 0-3.338h-6.678a1.668 1.668 0 0 0-1.4.757l-6.183 9.48H1.669a1.669 1.669 0 0 0 0 3.338h16.69z" transform="translate(19 19)" style="fill:#ff2e36"/>
    <path d="M0 10.571a1.669 1.669 0 0 0 1.669 1.669h35.609a1.669 1.669 0 0 0 1.669-1.669A10.583 10.583 0 0 0 28.376 0h-17.8A10.583 10.583 0 0 0 0 10.571z" transform="translate(37.027 43.704)" style="fill:#ff2e36"/>
    <path d="M3.339 0a3.339 3.339 0 0 0 0 6.677h27.818a3.339 3.339 0 0 0 0-6.677z" transform="translate(39.251 59.283)" style="fill:#ff2e36"/>
    <path d="M37.278 0H1.669A1.669 1.669 0 0 0 0 1.669a5.013 5.013 0 0 0 5.008 5.007H33.94a5.013 5.013 0 0 0 5.008-5.007A1.669 1.669 0 0 0 37.278 0z" transform="translate(37.027 69.298)" style="fill:#ff2e36"/>
</svg>
