<svg xmlns="http://www.w3.org/2000/svg" width="94" height="94" viewBox="0 0 94 94">
    <circle cx="47" cy="47" r="47" style="opacity:.1;fill:#ff2e36"/>
    <path d="M22.862 54.429H7.168a2.8 2.8 0 0 1-2.8-2.552l-2.4-25.6h26.094l-2.4 25.6a2.8 2.8 0 0 1-2.789 2.552zm3.75 0a4.676 4.676 0 0 0 .913-2.377l1.011-10.762h23.89l-1.335 10.673a2.821 2.821 0 0 1-2.791 2.466zm2.1-15.017.176-1.876h25.54v1.876zm1.052-11.257h10.223a27.043 27.043 0 0 0 8.713-1.434 10.34 10.34 0 0 1-1.049 3.311H36.6v1.876h14.079a1.874 1.874 0 1 1-.005 3.749l-21.609.007zm6.442-2.428a1.876 1.876 0 0 1-.549-1.33 1.874 1.874 0 1 1 .547 1.327zm5.153-.387a6.579 6.579 0 0 1 6.5-5.63h.872a6.58 6.58 0 0 1-6.5 5.63zM0 24.4v-1.876h30.033V24.4zm3.754-3.754a1.877 1.877 0 1 1 0-3.753H18.77v-1.875H7.849a2.225 2.225 0 0 1-.54-4.382l.561-.136a14.2 14.2 0 0 0 7.214-4.4l.364.365a8.057 8.057 0 0 1 2.32 4.808H12.2v1.877h12.2a3.754 3.754 0 1 1 0 7.508zm17.037-9.384L22.4 0h1.858l-1.609 11.263z" style="fill:#ff2e36" transform="translate(21.789 14.786)"/>
</svg>
