<svg xmlns="http://www.w3.org/2000/svg" width="94" height="94" viewBox="0 0 94 94">
    <circle cx="47" cy="47" r="47" style="opacity:.1;fill:#ff2e36"/>
    <path d="M12.414 7.884V2.733A2.958 2.958 0 0 0 11.4.433a1.746 1.746 0 0 0-1.49-.4A14.376 14.376 0 0 0 0 7.39a25.227 25.227 0 0 1 4.071-.352 42.476 42.476 0 0 1 8.343.846z" transform="translate(35.845 21.415)" style="fill:#ff2e36"/>
    <path d="M1.619 22.291a19.442 19.442 0 0 0 1.631-8.037A17.94 17.94 0 0 0 0 3.426 26.693 26.693 0 0 1 12.508 0c10.583 0 19.009 4.118 23.009 7.638a7.658 7.658 0 0 0 6.711 1.806 1.136 1.136 0 0 0 .164-.047l8.53-3.238a.4.4 0 0 1 .34.13.322.322 0 0 1 .106.27l-2.922 6.887a4.213 4.213 0 0 0 0 2.687c.022.058.047.1.07.164l2.84 5.573a.369.369 0 0 1-.058.246.423.423 0 0 1-.352.165l-8.437-4.331a1.38 1.38 0 0 0-.282-.105 7.7 7.7 0 0 0-6.711 1.806c-.469.411-2.452 2-3.32 2.641z" transform="translate(27.409 30.803)" style="fill:#ff2e36"/>
    <path d="M0 0a5.877 5.877 0 0 0 5.749 4.693h53.973A5.873 5.873 0 0 0 65.471 0z" transform="translate(14.35 55.441)" style="fill:#ff2e36"/>
    <path d="M1.666 2.793a1.344 1.344 0 0 0 1.079.728h37.289a1.328 1.328 0 0 0 1.079-.728L42.791 0H0z" transform="translate(25.731 62.481)" style="fill:#ff2e36"/>
    <path d="M7.557 17.694a52.212 52.212 0 0 1-6.453-5.4 3.78 3.78 0 0 1 0-5.339A50.882 50.882 0 0 1 9.938 0a15.461 15.461 0 0 1 2.968 9.657 16.6 16.6 0 0 1-1.9 8.037z" transform="translate(15.406 35.4)" style="fill:#ff2e36"/>
</svg>
