<svg xmlns="http://www.w3.org/2000/svg" width="94" height="94" viewBox="0 0 94 94">
    <circle cx="47" cy="47" r="47" style="opacity:.1;fill:#ff2e36"/>
    <path d="M7.05 49C5.4 49 4 48.084 4 47v-1.909A.624.624 0 0 1 4.35 45h51.3a.63.63 0 0 1 .35.091V47c0 1.084-1.4 2-3.05 2zm33.183-6a7.935 7.935 0 0 1-2.054-.371 24.371 24.371 0 0 1-.212-.985c-.476-2.477-1.308-8.7 1.183-13.22l5.013-1.914c5.352 2.1 8.6 8.971 9.2 10.26-.554.957-2.333 3.37-6.908 5.116A16.71 16.71 0 0 1 41.554 43zM25 43h-6.037a8.952 8.952 0 0 1-8.73-6.979A8.777 8.777 0 0 1 10 34V18a1 1 0 0 1 1-1h22a1 1 0 0 1 1 1v9.645a2.714 2.714 0 0 0-1.517.3c-.289-.33-.567-.671-.832-1.01-1.133-1.453-2.54-3.263-5.068-2.3A2.326 2.326 0 0 0 25.211 26c-.52 1.343-.067 3.459 1.359 6.43a2.523 2.523 0 0 0-.045 2.668 19.248 19.248 0 0 0 4.229 4.937c.176.135.356.258.537.382A8.929 8.929 0 0 1 25.01 43zm6.979-4.545a17.268 17.268 0 0 1-3.753-4.41.6.6 0 0 1 .18-.731l.038-.035a35.512 35.512 0 0 1 4.39-3.232c.158-.1.319-.206.511-.319a.733.733 0 0 1 .77-.017 8.018 8.018 0 0 0 2.015.915 24.8 24.8 0 0 0-.4 9.773 13.4 13.4 0 0 1-3.75-1.944zM0 28.47C0 24.527.588 20 5.171 20A9.017 9.017 0 0 1 8 20.441v2.149A6.7 6.7 0 0 0 5.171 22C2.242 22 2 25.061 2 28.47 2 31.933 3.185 34 5.171 34A8.764 8.764 0 0 0 8 33.5v.5a10.914 10.914 0 0 0 .126 1.561A10.744 10.744 0 0 1 5.171 36C1.933 36 0 33.185 0 28.47zm47.773-2.22a8.846 8.846 0 0 0 1.027-2.085.855.855 0 0 1 .671-.565c.184-.038.368-.065.571-.1a33.221 33.221 0 0 1 5.284-.464h.067a.469.469 0 0 1 .5.4 18.763 18.763 0 0 1-.266 5.967 15.049 15.049 0 0 1-1.737 4.046 22.891 22.891 0 0 0-6.117-7.199zm-20.7.478a.33.33 0 0 1 .218-.223c1.06-.4 1.544.077 2.78 1.661.212.272.438.562.683.851a38.174 38.174 0 0 0-2.666 1.956c-1.036-2.318-1.222-3.703-1.012-4.245zm23.912-6.457c0-2.072.106-2.829 1.2-3.245a.227.227 0 0 1 .236.012c.171.1.993.726 1.748 4.036-.841.035-1.931.11-3.2.274a28.8 28.8 0 0 0 .019-1.076zM26 11a4.527 4.527 0 0 1 1.219-3.125 2.641 2.641 0 0 0 0-3.75A4.527 4.527 0 0 1 26 1a1 1 0 1 1 2 0 2.577 2.577 0 0 0 .781 1.875 4.617 4.617 0 0 1 0 6.25A2.579 2.579 0 0 0 28 11a1 1 0 1 1-2 0zm-6 0a4.528 4.528 0 0 1 1.22-3.125 2.643 2.643 0 0 0 0-3.75A4.528 4.528 0 0 1 20 1a1 1 0 0 1 2 0 2.58 2.58 0 0 0 .78 1.875 4.616 4.616 0 0 1 0 6.25A2.583 2.583 0 0 0 22 11a1 1 0 0 1-2 0zm-6 0a4.527 4.527 0 0 1 1.219-3.125 2.641 2.641 0 0 0 0-3.75A4.527 4.527 0 0 1 14 1a1 1 0 1 1 2 0 2.577 2.577 0 0 0 .781 1.875 4.617 4.617 0 0 1 0 6.25A2.579 2.579 0 0 0 16 11a1 1 0 1 1-2 0z" transform="translate(20 22)" style="fill:#ff2e36"/>
</svg>
