<svg xmlns="http://www.w3.org/2000/svg" width="94" height="94" viewBox="0 0 94 94">
    <circle cx="47" cy="47" r="47" style="opacity:.1;fill:#ff2e36"/>
    <path d="m34.572 54.983-1.02-.734a3.79 3.79 0 0 0-4.588.175l-.212.174a5.616 5.616 0 0 1-6.379.56l-1.836-1.065a3.814 3.814 0 0 0-2.919-.358l-.02.006a5.609 5.609 0 0 1-6.927-3.861l-.349-1.239H.914a.924.924 0 0 1-.652-1.569l8.758-8.8c-.057-.062-.13-.127-.185-.2a4.812 4.812 0 0 1-.917-3.672l.175-1.221A2.922 2.922 0 0 0 7.8 31.4a4.873 4.873 0 0 1 3.174-6.891l.761-.193-.624-1.836a3.983 3.983 0 0 1 2.515-5.039l.973-.34A2.108 2.108 0 0 0 16 15.581a4.018 4.018 0 0 1 2.758-2.846L24.878.5a.917.917 0 0 1 1.229-.4L40.2 7.137l1.364-1.367a.915.915 0 0 1 .652-.266h11.933a.766.766 0 0 1 .349.073.919.919 0 0 1 .568.844v41.261a.918.918 0 0 1-.918.918h-2.276l-1.12 1.836a5.656 5.656 0 0 1-4.819 2.752h-.679a3.811 3.811 0 0 0-1.836.5l-2.753 1.56a5.547 5.547 0 0 1-2.753.734h-.124a5.666 5.666 0 0 1-3.216-.999z" style="fill:#ff2e36" transform="translate(12.462 16.002)"/>
    <path style="fill:#ff2e36" d="M0 0h1.836v1.836H0z" transform="translate(61.101 38.025)"/>
    <path style="fill:#ff2e36" d="M0 0h1.836v1.836H0z" transform="translate(53.759 42.614)"/>
    <path style="fill:#ff2e36" d="M0 0h1.836v1.836H0z" transform="translate(58.348 47.203)"/>
    <path style="fill:#ff2e36" d="M0 0h1.836v1.836H0z" transform="translate(44.581 49.956)"/>
    <path style="fill:#ff2e36" d="M0 0h1.836v1.836H0z" transform="translate(51.923 56.381)"/>
    <path style="fill:#ff2e36" d="M0 0h1.836v1.836H0z" transform="translate(60.184 59.134)"/>
    <path style="fill:#ff2e36" d="M0 0h1.836v1.836H0z" transform="translate(34.485 58.216)"/>
    <path style="fill:#ff2e36" d="M0 0h1.836v1.836H0z" transform="translate(41.827 59.134)"/>
</svg>
