<svg xmlns="http://www.w3.org/2000/svg" width="94" height="94" viewBox="0 0 94 94">
    <circle cx="47" cy="47" r="47" style="opacity:.1;fill:#ff2e36"/>
    <path d="M.006 49.431a1.272 1.272 0 0 1 1.036-1.378l14.2-2.9a8.134 8.134 0 0 1-.425 1.882l2 .716a10.232 10.232 0 0 0 .589-3.04l5.183-1.06a8.264 8.264 0 0 1-.463 2.471l2 .724a10.433 10.433 0 0 0 .592-3.62l5.185-1.06a8.308 8.308 0 0 1-.471 3.053l2 .712A10.458 10.458 0 0 0 32 41.74l5.175-1.06a8.3 8.3 0 0 1-.43 3.623l2 .713a10.392 10.392 0 0 0 .508-4.759l6.1-1.243a8.384 8.384 0 0 1-.233 2.875l-.105.4 2.05.536.106-.4a10.518 10.518 0 0 0 .264-3.837l.106-.023a5.827 5.827 0 0 1 1.158-.117 5.713 5.713 0 0 1 5.573 4.378 1.057 1.057 0 0 1 .126-.273l2.902-4.238 1.75 1.2-1.41 2.057 2.438-.515.437 2.076-3.188.675 2.683 2.863-1.547 1.45-3.97-4.241a1.02 1.02 0 0 1-.082-.124c.011.154.044.3.044.459a5.725 5.725 0 0 1-1.689 4.077l-.594.6a5.726 5.726 0 0 1-4.078 1.688H1.271a1.271 1.271 0 0 1-1.265-1.149zm2.437-7.959a29.088 29.088 0 0 1 .2-12.6c.842-3.41 2.711-7.67 6.812-8.635s7.665 2.031 9.931 4.713a29.141 29.141 0 0 1 5.773 11.2 11.5 11.5 0 0 1 .089 4.793l-2.272.464a9.538 9.538 0 1 0-16.593 3.386l-2.283.465a11.524 11.524 0 0 1-1.656-3.786zm4.134-.967a7.421 7.421 0 1 1 13.966 1.4L8.837 44.3a7.271 7.271 0 0 1-2.26-3.795zm20.642-4.829a31.47 31.47 0 0 0-6.213-12.086c-2.5-2.961-5.152-4.771-7.835-5.4.027-.055.05-.11.076-.16a11.989 11.989 0 0 1 10.8-6.68 12.114 12.114 0 0 1 7.533 2.642l1.31 1.049v-1.494A19.026 19.026 0 0 1 38.5 0L40 1.5a16.924 16.924 0 0 0-4.99 12.047v1.493l1.307-1.047a12.059 12.059 0 0 1 18.333 4.036 14.807 14.807 0 0 1 1.563 6.6 26.169 26.169 0 0 1-2.3 10.655L52.9 37.56a7.836 7.836 0 0 0-5.8-1.074l-19.619 4a13.577 13.577 0 0 0-.262-4.81zM4.262 8.169V3.928H8.5a10.562 10.562 0 0 1 9.787 6.5 14.016 14.016 0 0 0-3.662 2.362l-1.884-1.883V6.044h-2.12v2.742L7.133 5.295l-1.5 1.5 3.491 3.491h-2.74V12.4h4.865l1.908 1.908a14.343 14.343 0 0 0-1.8 2.758c-.138.27-.27.562-.4.868h-.184a10.526 10.526 0 0 1-6.511-9.765zM26.067.824a8.5 8.5 0 0 1 7.269 7.269A8.5 8.5 0 0 1 26.067.824zm0 0z" transform="translate(17.001 22.001)" style="fill:#ff2e36"/>
</svg>
