<svg xmlns="http://www.w3.org/2000/svg" width="23" height="23" viewBox="0 0 23 23">
    <path data-name="Fill 408" d="M11.5 23A11.5 11.5 0 1 1 23 11.5 11.513 11.513 0 0 1 11.5 23zm-1.15-6.9a3.46 3.46 0 0 0-3.45 3.37 9.218 9.218 0 0 0 9.2 0 3.475 3.475 0 0 0-3.45-3.37h-2.3zM11.5 4.6a5.752 5.752 0 0 1 3.956 9.925 5.8 5.8 0 0 1 2.69 3.335 9.2 9.2 0 1 0-13.294 0 5.775 5.775 0 0 1 2.692-3.335A5.751 5.751 0 0 1 11.5 4.6zm0 2.3a3.45 3.45 0 1 0 3.449 3.45A3.454 3.454 0 0 0 11.5 6.9z" style="fill:#fff"/>
</svg>
