<svg xmlns="http://www.w3.org/2000/svg" width="35" height="29.853" viewBox="0 0 35 29.853">
    <defs>
        <linearGradient id="63sfc58yta" x1=".5" x2=".5" y2="1" gradientUnits="objectBoundingBox">
            <stop offset="0" stop-color="#ff461e"/>
            <stop offset="1" stop-color="#ff1054"/>
        </linearGradient>
    </defs>
    <path d="M.515 1.029A.515.515 0 1 0 0 .515a.515.515 0 0 0 .515.514z" transform="translate(11.324 11.324)" style="fill:url(#63sfc58yta)"/>
    <path d="M29.281 29.853H5.719a2.177 2.177 0 0 1-1.852-1.03l-1.943-3.4a3.325 3.325 0 0 1-.215-5.92 15.408 15.408 0 0 1 5.538-9.043A16.422 16.422 0 0 1 17.5 6.835c.33 0 .675.011 1.026.033a7.985 7.985 0 0 1 1.87-.68 78.4 78.4 0 0 0 1.814-.535l.756-.223.024-.007 2.179-.641 1.591-1.576a.606.606 0 0 0 .194-.572A2.014 2.014 0 0 1 27.463.6a2.064 2.064 0 0 1 2.9 0 2.019 2.019 0 0 1 .6 1.324 2.059 2.059 0 0 1 1.337.586 2.021 2.021 0 0 1 0 2.873 2.049 2.049 0 0 1-1.449.6 2.083 2.083 0 0 1-.611-.092.4.4 0 0 0-.116-.017.685.685 0 0 0-.46.21l-1.594 1.57-.77 2.574a17.453 17.453 0 0 1 3.924 4.264 14.3 14.3 0 0 1 2.067 5.008 3.325 3.325 0 0 1-.214 5.921l-1.943 3.4a2.175 2.175 0 0 1-1.853 1.032zM3.7 25.791l1.352 2.363a.8.8 0 0 0 .662.344h23.567a.8.8 0 0 0 .663-.343l1.356-2.364H3.7zm-.218-5.416a2.033 2.033 0 1 0 0 4.062h28.032a2.033 2.033 0 1 0-2.119-2.031.684.684 0 0 1-1.368 0 2.121 2.121 0 0 0-4.238 0 .684.684 0 0 1-1.367 0 2.121 2.121 0 0 0-4.238 0 .684.684 0 0 1-1.367 0 2.121 2.121 0 0 0-4.238 0 .684.684 0 0 1-1.367 0 2.121 2.121 0 0 0-4.239 0 .684.684 0 0 1-1.367 0 2.1 2.1 0 0 0-2.119-2.031zm22.422-1.354a3.517 3.517 0 0 1 2.447.979 3.45 3.45 0 0 1 .36.4 3.455 3.455 0 0 1 .36-.4 3.517 3.517 0 0 1 2.443-.984c.083 0 .171 0 .267.012a14.775 14.775 0 0 0-4.9-7.4l-.455 1.517A5.327 5.327 0 0 1 24.373 16a5.642 5.642 0 0 1-3.223 1.018 5.423 5.423 0 0 1-3.837-1.586 5.351 5.351 0 0 1-1.6-3.576A5.449 5.449 0 0 1 16.934 8.2a15.12 15.12 0 0 0-8.741 3.231 14.173 14.173 0 0 0-4.982 7.6c.108-.008.2-.012.275-.012A3.517 3.517 0 0 1 5.929 20a3.619 3.619 0 0 1 .36.4 3.455 3.455 0 0 1 .36-.4 3.524 3.524 0 0 1 4.885 0 3.45 3.45 0 0 1 .36.4 3.526 3.526 0 0 1 5.246-.4 3.45 3.45 0 0 1 .36.4 3.627 3.627 0 0 1 .36-.4 3.534 3.534 0 0 1 5.246.4 3.455 3.455 0 0 1 .36-.4 3.517 3.517 0 0 1 2.442-.979zm-.569-12.875-.519.153-2.216.652c-.788.242-1.354.4-1.808.532a6.3 6.3 0 0 0-1.749.652 4.111 4.111 0 0 0-1.935 3.019 3.989 3.989 0 0 0 1.172 3.324 4.122 4.122 0 0 0 6.832-1.712l1.581-5.275-1.358-1.345zm3.579-4.792a.683.683 0 0 0-.483.2.673.673 0 0 0-.17.68 1.923 1.923 0 0 1-.533 1.931L26.5 5.383l.967.958 1.23-1.219a2.052 2.052 0 0 1 1.424-.607 1.791 1.791 0 0 1 .526.078.693.693 0 0 0 .2.031.682.682 0 0 0 .483-.2.674.674 0 0 0 0-.958.688.688 0 0 0-.967 0 .688.688 0 0 1-.967 0 .674.674 0 0 1 0-.958.672.672 0 0 0 0-.958.683.683 0 0 0-.482-.196z" style="fill:url(#63sfc58yta)"/>
    <path data-name="Path" d="M.335 5.078a.567.567 0 0 0 .265.069.6.6 0 0 0 .541-.361A11.2 11.2 0 0 1 3.9 1.154a.686.686 0 0 0 .081-.916.575.575 0 0 0-.85-.09A12.5 12.5 0 0 0 .064 4.205a.675.675 0 0 0 .271.873z" transform="translate(6.176 12.353)" style="fill:url(#63sfc58yta)"/>
</svg>
