<svg xmlns="http://www.w3.org/2000/svg" width="23.925" height="38.28" viewBox="0 0 23.925 38.28">
    <defs>
        <linearGradient id="894ljimvya" x1=".5" x2=".5" y2="1" gradientUnits="objectBoundingBox">
            <stop offset="0" stop-color="#ff461e"/>
            <stop offset="1" stop-color="#ff1054"/>
        </linearGradient>
    </defs>
    <path d="M.748 0A.748.748 0 1 0 1.5.748.748.748 0 0 0 .748 0z" transform="translate(7.477 27.364)" style="fill:url(#894ljimvya)"/>
    <path d="M17.425 38.281H6.5a2.237 2.237 0 0 1-2.213-1.874l-2.7-17.065a2.243 2.243 0 0 1 .005-4.293l.055-.33a10.457 10.457 0 0 1 9.566-8.71V2.244a.747.747 0 0 1 .511-.71L16.212.039a.748.748 0 0 1 .473 1.418l-3.974 1.325v3.226a10.457 10.457 0 0 1 9.565 8.71l.055.331a2.243 2.243 0 0 1 .005 4.293L19.638 36.4a2.239 2.239 0 0 1-2.213 1.881zM5.317 33.346l.446 2.821a.742.742 0 0 0 .736.618h10.926a.744.744 0 0 0 .737-.625l.445-2.814H5.317zM3.9 24.374l1.181 7.476h13.763l1.183-7.476H3.9zm-.781-4.935.544 3.44h16.6l.544-3.44H3.118zm18.561-2.991H2.243a.748.748 0 1 0 0 1.5h19.439a.747.747 0 0 0 0-1.495zm-10.465-8.94a8.942 8.942 0 0 0-8.089 7.446H20.8a8.955 8.955 0 0 0-8.088-7.445v3.474a.748.748 0 0 1-1.5 0z" style="fill:url(#894ljimvya)"/>
    <path data-name="Path" d="M5.234 0H.748a.748.748 0 0 0 0 1.5h4.486a.748.748 0 0 0 0-1.5z" transform="translate(10.468 27.364)" style="fill:url(#894ljimvya)"/>
</svg>
