<svg xmlns="http://www.w3.org/2000/svg" width="10.324" height="9.76" viewBox="0 0 10.324 9.76">
    <path data-name="Path 18817" d="M.548 16.9H2.3a.549.549 0 0 1 .548.548v2.015H3.5A1.5 1.5 0 0 1 3.46 19a4.4 4.4 0 0 1 .414-1.922 2.063 2.063 0 0 1 .641-.773 1.4 1.4 0 0 1-.375-.993 1.283 1.283 0 1 1 2.566 0 .151.151 0 0 1-.151.151h-.1a1.065 1.065 0 0 1 .014.174 1.05 1.05 0 0 1-.844 1.029 2.549 2.549 0 0 1 .075.658l.377.324.918.074 1.059-.35a.321.321 0 0 1 .3 0 .269.269 0 0 1 .094.226v.787a.151.151 0 0 1-.151.151h-.18l.276.954a.151.151 0 0 1-.291.084l-.3-1.038h-.43a4.879 4.879 0 0 1-.239 3.821H7.4l1.132-1.266-.232-.83a.151.151 0 0 1 .291-.084l.229.791a1.521 1.521 0 0 1 1.5 1.179.151.151 0 0 1-.113.181l-.215.049a1.157 1.157 0 0 1-2.236.515l-.169.039a.2.2 0 0 1-.146-.008.174.174 0 0 1-.085-.116 1.5 1.5 0 0 1-.024-.151H4.168a1.289 1.289 0 0 1-2.551 0h-.143a.207.207 0 0 1-.157-.057.194.194 0 0 1-.053-.147 1.714 1.714 0 0 1 .062-.41 2.359 2.359 0 0 1 .167-1.525.4.4 0 0 1-.181-.333v-.416H.548A.549.549 0 0 1 0 19.221v-1.77a.549.549 0 0 1 .548-.551zm7.839 6.31a.848.848 0 0 0 .645.109.857.857 0 0 0 .662-.875l-1.64.378a.85.85 0 0 0 .333.389zm-.757-.6 2.352-.541a1.218 1.218 0 0 0-1.2-.8L7.626 22.56l.004.051zm-2.284-2.634a1.346 1.346 0 0 1 .044.456V21h.554v-.78c0-.885-.483-1.043-.7-1.069H3.761a.641.641 0 0 0 .137.434.7.7 0 0 0 .525.157h.543a.364.364 0 0 1 .38.233zM5.39 21.3v.361h1.078a.431.431 0 0 0-.1-.259.373.373 0 0 0-.269-.1zm-1.623-2.452h1.376a5.647 5.647 0 0 0 .145-.56l-.418-.271a.624.624 0 0 1-.326-.575.535.535 0 0 1 .333-.442.546.546 0 0 1 .508.056 1.786 1.786 0 0 0-.073-.383 1.066 1.066 0 0 1-.191-.038 1.253 1.253 0 0 1-.353-.14c-.292.178-.933.743-1.001 2.353zm2.625-3.691a.979.979 0 0 0-1.95.151 1.027 1.027 0 0 0 .565.975v-.8a.3.3 0 0 1 .3-.33h1.085zm-.228.477a.753.753 0 0 0-.02-.174H5.312a.18.18 0 0 0 0 .025v.885a.749.749 0 0 0 .109.008.747.747 0 0 0 .743-.744zm.2 2.337L6 17.942a.151.151 0 0 1-.086-.036l-.646-.556a.3.3 0 0 0-.194-.081.233.233 0 0 0-.23.2.334.334 0 0 0 .189.292l.72.468h.607v-.259zm.636.052L6.663 18v.235h.391c.051 0 .063-.042.065-.077A.12.12 0 0 0 7 18.023zm.358-.1a.437.437 0 0 1 .056.311h.733v-.574l-.789.261zm-.3.615H5.71a.151.151 0 0 1-.082-.024l-.068-.044c-.033.146-.07.287-.111.421.308.091.8.385.8 1.334v.8a.631.631 0 0 1 .337.181.738.738 0 0 1 .189.468h.305a4.448 4.448 0 0 0-.027-3.141zM6.8 22.354c.056-.129.11-.257.161-.385H5.394c-.2 0-.307-.093-.307-.275v-1.11H3.893a.151.151 0 1 1 0-.3h1.193a.685.685 0 0 0-.023-.2c-.008-.02-.014-.038-.1-.038h-.54a.976.976 0 0 1-.744-.252l-.021-.024H1.614v.416a.1.1 0 0 0 .1.1h1.501a.151.151 0 1 1 0 .3H1.8a1.786 1.786 0 0 0-.221.934 1.641 1.641 0 0 1 2.5-.2 1.666 1.666 0 0 1 .475 1.032zm-3.911 1.1a1 1 0 0 0 .968-.8H1.925a1 1 0 0 0 .968.803zm-1.14-1.1h2.5a1.357 1.357 0 0 0-1.338-1.217 1.342 1.342 0 0 0-1.287.962v.005a1.4 1.4 0 0 0-.05.251zM.3 19.221a.246.246 0 0 0 .245.246h2v-.781H.3zm0-.838h2.244v-.322H.3zm0-.624h2.244v-.308a.246.246 0 0 0-.245-.246H.548a.246.246 0 0 0-.245.246z" transform="translate(0 -14)" style="fill:#ff2e36"/>
</svg>
