<svg xmlns="http://www.w3.org/2000/svg" width="24" height="30" viewBox="0 0 24 30">
    <defs>
        <linearGradient id="dvkjpf7gna" x1=".5" x2=".5" y2="1" gradientUnits="objectBoundingBox">
            <stop offset="0" stop-color="#ff461e"/>
            <stop offset="1" stop-color="#ff1054"/>
        </linearGradient>
    </defs>
    <path d="M.522 0a.517.517 0 1 0 .522.517A.52.52 0 0 0 .522 0z" transform="translate(6.261 26.897)" style="fill:url(#dvkjpf7gna)"/>
    <path d="M19.8 30H4.2a.6.6 0 0 1-.589-.472L.013 11.6v-.016a.655.655 0 0 1-.01-.1V9.961C0 8.384.249 6.247 2.4 5.9V2.93a1.781 1.781 0 0 1 1.8-1.758h1.2a1.8 1.8 0 0 1 1.736 1.3 1.847 1.847 0 0 1 .664-.128H9a1.839 1.839 0 0 1 .6.1v-.686A1.781 1.781 0 0 1 11.4 0h1.2a1.781 1.781 0 0 1 1.8 1.758v1.858a1.841 1.841 0 0 1 .6-.1h1.2a1.839 1.839 0 0 1 .6.1V2.93a1.781 1.781 0 0 1 1.8-1.758h1.2a1.781 1.781 0 0 1 1.8 1.758V5.9c2.151.342 2.4 2.479 2.4 4.056v1.523a.606.606 0 0 1-.012.112v.009l-2.577 12.833-.3 1.518-.718 3.575A.6.6 0 0 1 19.8 30zM1.329 12.07l3.365 16.758h14.612l.236-1.172H9a.586.586 0 1 1 0-1.172h10.777l2.894-14.414h-4.405a.6.6 0 0 0-.57.4 4.545 4.545 0 0 1-1.683 2.24 4.7 4.7 0 0 1-2.742.876h-2.508a4.65 4.65 0 0 1-4.425-3.115.606.606 0 0 0-.57-.4zM11.4 1.172a.594.594 0 0 0-.6.586v12.656h2.4V1.758a.594.594 0 0 0-.6-.586zM15 4.687a.594.594 0 0 0-.6.586v8.955a3.458 3.458 0 0 0 2.157-2.128 1.7 1.7 0 0 1 .243-.464V5.273a.594.594 0 0 0-.6-.586zM7.8 3.515a.594.594 0 0 0-.6.586v7.491a1.761 1.761 0 0 1 .276.509A3.4 3.4 0 0 0 9.6 14.216V4.1a.594.594 0 0 0-.6-.585zm10.8-1.171a.594.594 0 0 0-.6.586v7.988a1.849 1.849 0 0 1 .266-.02H20.4V2.93a.594.594 0 0 0-.6-.586zm-14.4 0a.594.594 0 0 0-.6.586v7.97h2.168a1.816 1.816 0 0 1 .232.013V2.93a.594.594 0 0 0-.6-.586zM21.6 7.1v3.8h1.2v-.939c0-1.747-.37-2.629-1.2-2.861zm-19.2 0a1.25 1.25 0 0 0-.818.65A4.737 4.737 0 0 0 1.2 9.961v.939h1.2V7.1z" style="fill:url(#dvkjpf7gna)"/>
    <path data-name="Shape" d="M3.652 7.241A3.641 3.641 0 0 1 0 3.621a3.652 3.652 0 0 1 7.3 0 3.641 3.641 0 0 1-3.648 3.62zm0-6.035a2.414 2.414 0 1 0 2.435 2.415 2.427 2.427 0 0 0-2.435-2.414z" transform="translate(8.348 16.552)" style="fill:url(#dvkjpf7gna)"/>
</svg>
