<svg xmlns="http://www.w3.org/2000/svg" width="40" height="40" viewBox="0 0 40 40">
    <g data-name="Group 4361" transform="translate(-36 -1027)">
        <circle cx="20" cy="20" r="20" transform="translate(36 1027)" style="fill:#fff"/>
        <path data-name="Fill 1425" d="M16.667 21.778h-2.778a2.2 2.2 0 0 1-2.223-2.178v-5.415H8.333V19.6a2.2 2.2 0 0 1-2.222 2.179H3.333A3.266 3.266 0 0 1 0 18.51V9.3a3.348 3.348 0 0 1 1.111-2.4L7.778.861A3.334 3.334 0 0 1 10.029 0a3.524 3.524 0 0 1 2.193.774L18.777 6.3A3.188 3.188 0 0 1 20 8.792v9.718a3.266 3.266 0 0 1-3.333 3.268zm-9.445-9.772h5.555a1.064 1.064 0 0 1 1.112 1.094v6.5h2.778a1.064 1.064 0 0 0 1.11-1.089V8.792a.915.915 0 0 0-.444-.828L10.777 2.43a1.17 1.17 0 0 0-.734-.258.948.948 0 0 0-.71.291L2.555 8.5a1.086 1.086 0 0 0-.333.806v9.204a1.064 1.064 0 0 0 1.111 1.09h2.778v-6.5a1.064 1.064 0 0 1 1.111-1.094z" transform="translate(46 1036)" style="fill:#ff2e36"/>
    </g>
</svg>
