<svg xmlns="http://www.w3.org/2000/svg" width="30" height="30" viewBox="0 0 30 30">
    <g data-name="Group 4427" transform="translate(-20 -666)">
        <circle data-name="Ellipse 2978" cx="15" cy="15" r="15" transform="translate(20 666)" style="fill:#1dbf73;opacity:.1"/>
        <g data-name="position-pin" transform="translate(29 675)">
            <path d="M7.636 3.818c0 2.356-3.818 6.2-3.818 6.2S0 6.175 0 3.818A3.783 3.783 0 0 1 3.818 0a3.783 3.783 0 0 1 3.818 3.818z" transform="translate(2.182)" style="stroke-linecap:square;fill:none;stroke:#1dbf73;stroke-miterlimit:10"/>
            <circle cx="1.091" cy="1.091" r="1.091" transform="translate(4.909 2.727)" style="stroke-linecap:square;fill:none;stroke:#1dbf73;stroke-miterlimit:10"/>
            <path data-name="Path" d="M9.273 0C10.915.292 12 .8 12 1.372c0 .9-2.686 1.636-6 1.636s-6-.732-6-1.636C0 .8 1.085.292 2.727 0" transform="translate(0 8.992)" style="fill:none;stroke:#1dbf73;stroke-miterlimit:10"/>
        </g>
    </g>
</svg>
