<svg xmlns="http://www.w3.org/2000/svg" width="26" height="29.911" viewBox="0 0 26 29.911">
    <path d="M.589 0A.586.586 0 0 0 0 .582a.586.586 0 0 0 .589.582.586.586 0 0 0 .589-.582A.586.586 0 0 0 .589 0z" transform="translate(12.411 21.672)" style="fill:#fff"/>
    <path d="M18.65 29.911H7.353a1.768 1.768 0 0 1-1.682-1.2.3.3 0 0 1-.01-.031L2.808 18.4a4 4 0 0 1-1.763-6.514 4.122 4.122 0 0 1 2.8-1.359 7.149 7.149 0 0 1 2.42-3.78 9.356 9.356 0 0 1 4.515-1.9 2.9 2.9 0 0 1-.733-1.922 2.955 2.955 0 0 1 5.909 0 2.9 2.9 0 0 1-.733 1.922 9.355 9.355 0 0 1 4.514 1.9 7.149 7.149 0 0 1 2.421 3.779c.151.01.3.028.432.05a4.083 4.083 0 0 1 .577 7.909l-2.827 10.2a.3.3 0 0 1-.009.031 1.77 1.77 0 0 1-1.681 1.195zm.829-11.217a1.009 1.009 0 0 0-.454.168l-.109.059-2.222 9.821h1.956a.591.591 0 0 0 .556-.388l2.678-9.661h-2.405zM13 23.952a.588.588 0 0 1 .59.584v4.207h1.891l2.08-9.2a12.219 12.219 0 0 1-4.541.891 12.37 12.37 0 0 1-4.582-.894l2.081 9.2h1.89v-4.204a.588.588 0 0 1 .591-.584zm-8.89-5.274 2.69 9.676a.594.594 0 0 0 .557.388h1.952l-2.222-9.82-.107-.058a1.009 1.009 0 0 0-.456-.169h-2.01c-.135 0-.271-.005-.4-.016zm.026-6.994a2.984 2.984 0 0 0-2.157.923 2.883 2.883 0 0 0-.794 2.156 3.119 3.119 0 0 0 3.328 2.763h2.01a2.149 2.149 0 0 1 1.095.35c.089.048.181.1.281.147a11.382 11.382 0 0 0 5.119 1.254 11.282 11.282 0 0 0 5.111-1.267l.254-.133a2.143 2.143 0 0 1 1.095-.35h2.387a2.919 2.919 0 0 0 .526-5.8 3.144 3.144 0 0 0-.522-.044 2.961 2.961 0 0 0-2.3 1.084.6.6 0 0 1-.831.087.58.58 0 0 1-.088-.822 4.156 4.156 0 0 1 2.309-1.417 6.022 6.022 0 0 0-2.751-3.529A10 10 0 0 0 13 5.842a10 10 0 0 0-5.2 1.246 6.025 6.025 0 0 0-2.751 3.529 4.158 4.158 0 0 1 2.31 1.417.58.58 0 0 1-.088.822.6.6 0 0 1-.832-.087 2.957 2.957 0 0 0-2.302-1.085zM13 1.168a1.753 1.753 0 1 0 1.773 1.752A1.765 1.765 0 0 0 13 1.168z" style="fill:#fff"/>
</svg>
