<svg xmlns="http://www.w3.org/2000/svg" width="50" height="50" viewBox="0 0 50 50">
    <circle cx="25" cy="25" r="25" style="opacity:.1;fill:#fe2121"/>
    <path d="M12 24A12 12 0 0 1 3.515 3.515a12 12 0 1 1 16.97 16.97A11.922 11.922 0 0 1 12 24zM7.65 6.07a.421.421 0 0 0-.3.123L6.193 7.356a.429.429 0 0 0 0 .6l4.066 4.018L6.2 16.049a.427.427 0 0 0 0 .6l1.157 1.163a.432.432 0 0 0 .3.123.41.41 0 0 0 .3-.123L12 13.757l4.045 4.05a.437.437 0 0 0 .3.123.415.415 0 0 0 .3-.123l1.155-1.163a.414.414 0 0 0 .123-.3.425.425 0 0 0-.123-.3l-4.05-4.065 4.068-4.019a.43.43 0 0 0 0-.6l-1.157-1.167a.427.427 0 0 0-.6 0l-4.055 4-4.055-4a.421.421 0 0 0-.301-.123z" transform="translate(13 13)" style="fill:#fe2121"/>
</svg>
