<svg xmlns="http://www.w3.org/2000/svg" width="50" height="50" viewBox="0 0 50 50">
    <defs>
        <linearGradient id="p20msph7ka" x1=".5" x2=".5" y2="1" gradientUnits="objectBoundingBox">
            <stop offset="0" stop-color="#6c4dda" stop-opacity=".6"/>
            <stop offset="1" stop-color="#522ed2"/>
        </linearGradient>
    </defs>
    <circle cx="25" cy="25" r="25" style="opacity:.1;fill:url(#p20msph7ka)"/>
    <path d="M12 24A12 12 0 0 1 3.515 3.515a12 12 0 1 1 16.97 16.97A11.922 11.922 0 0 1 12 24zM5.81 10.687a.751.751 0 0 0-.53.216l-1.06 1.043a.728.728 0 0 0 0 1.043l4.874 4.794a.76.76 0 0 0 1.061 0L18.78 9.3a.73.73 0 0 0 0-1.043l-1.06-1.041a.76.76 0 0 0-1.061 0l-7.035 6.917L6.341 10.9a.753.753 0 0 0-.531-.213z" transform="translate(13 13)" style="fill:#5634d2"/>
</svg>
