<svg xmlns="http://www.w3.org/2000/svg" width="188.21" height="147.25" viewBox="0 0 188.21 147.25">
    <defs>
        <linearGradient id="wcuni73oka" x1=".5" x2=".5" y2="1" gradientUnits="objectBoundingBox">
            <stop offset="0" stop-color="#ff461e"/>
            <stop offset="1" stop-color="#ff1054"/>
        </linearGradient>
    </defs>
    <path data-name="Union 11" d="M1730.871-1653.541a41.636 41.636 0 0 1 41.637-41.636 41.636 41.636 0 0 1 41.637 41.636 41.637 41.637 0 0 1-41.637 41.637 41.637 41.637 0 0 1-41.637-41.637zm-26.581-8.51-.156-3.042s5.684-.425 6.918 3.951l-1.435 2.376s-2.041-3.852-5.327-3.286zm120.6-9.171-.156-3.042s5.684-.425 6.92 3.95l-1.435 2.376s-2.045-3.853-5.331-3.285zm38.547-16.5.746-1.93s3.641 1.31 3.2 4.364l-1.548 1.076s-.205-2.952-2.4-3.51zm-183.192-18.689h5.3s-1.328 5.11 2.479 5.456l.731 2.5s-9.064-3.169-8.513-7.956zm163.344 1.4a6.933 6.933 0 0 1 .248-2.581 6.949 6.949 0 0 1 .247 2.581 6.95 6.95 0 0 1-.247 2.581 6.934 6.934 0 0 1-.251-2.583zm3.265-1.31c-.5-.6-.819-1.155-.715-1.242s.6.326 1.1.924.819 1.154.714 1.242a.057.057 0 0 1-.038.012c-.163-.003-.615-.394-1.064-.938zm-6.907.4c-.1-.092.2-.587.668-1.1s.935-.86 1.037-.768-.2.587-.67 1.1a2.489 2.489 0 0 1-.989.783.064.064 0 0 1-.049-.013zm-4.074-3.267a6.737 6.737 0 0 1 2.544-.248 6.734 6.734 0 0 1 2.543.248 6.7 6.7 0 0 1-2.543.249 6.706 6.706 0 0 1-2.547-.247zm-98.419-.094s.367-3.854 3.435-4.18l1.427 1.232s-2.81.926-2.807 3.191zm109.085-.072a6.735 6.735 0 0 1 2.542-.248 6.743 6.743 0 0 1 2.545.248 6.749 6.749 0 0 1-2.545.248 6.741 6.741 0 0 1-2.545-.245zm-3.126-4.173a6.889 6.889 0 0 1 .248-2.581 6.946 6.946 0 0 1 .247 2.581 6.946 6.946 0 0 1-.247 2.581 6.889 6.889 0 0 1-.25-2.578zm-2.586 1.724c-.495-.41-.824-.831-.736-.935s.56.141 1.052.553.824.828.737.935a.087.087 0 0 1-.068.023 2.388 2.388 0 0 1-.987-.573zm5 .448c-.1-.1.245-.6.764-1.123s1.017-.868 1.114-.771-.243.6-.761 1.121a2.783 2.783 0 0 1-1.069.789.065.065 0 0 1-.045-.013zm-140.787-7.837a6.957 6.957 0 0 1 .248-2.581 6.946 6.946 0 0 1 .247 2.581 6.939 6.939 0 0 1-.247 2.581 6.95 6.95 0 0 1-.245-2.578zm3.265-1.31c-.5-.6-.818-1.155-.715-1.242s.595.326 1.1.924.817 1.154.712 1.242a.052.052 0 0 1-.036.012c-.157.003-.604-.389-1.058-.934zm-6.909.4c-.1-.092.2-.587.67-1.1s.936-.86 1.036-.768-.2.587-.668 1.1a2.489 2.489 0 0 1-.991.783.064.064 0 0 1-.043-.007zm76.08-1.55-1.861-3.774s6.584.539 8.547-4.119l4.01 2.285s-3.206 5.943-8.5 5.942a7.53 7.53 0 0 1-2.194-.326zm46.646-.1-1.207-1.446s2.923-.459 3.287-2.694l1.986.574s-.939 3.572-3.857 3.572q-.1.004-.206-.002zm-126.8-1.614a6.74 6.74 0 0 1 2.544-.248 6.741 6.741 0 0 1 2.543.248 6.71 6.71 0 0 1-2.543.249 6.709 6.709 0 0 1-2.54-.244zm10.667-.166a6.738 6.738 0 0 1 2.543-.248 6.74 6.74 0 0 1 2.544.248 6.746 6.746 0 0 1-2.544.248 6.744 6.744 0 0 1-2.539-.243zm-3.127-4.173a6.954 6.954 0 0 1 .248-2.581 6.9 6.9 0 0 1 .249 2.581 6.894 6.894 0 0 1-.249 2.581 6.947 6.947 0 0 1-.244-2.576zm-2.587 1.724c-.492-.41-.823-.829-.733-.935s.56.143 1.051.553.823.828.735.935a.082.082 0 0 1-.067.023 2.406 2.406 0 0 1-.981-.571zm5.007.448c-.1-.1.244-.6.763-1.123s1.017-.868 1.115-.771-.245.6-.762 1.121a2.8 2.8 0 0 1-1.069.789.065.065 0 0 1-.043-.011zm47.563-30.562.744-1.929s3.641 1.312 3.2 4.365l-1.547 1.076s-.2-2.947-2.392-3.507z" transform="translate(-1679.717 1758.655)" style="stroke:transparent;stroke-miterlimit:10;fill:url(#wcuni73oka)"/>
    <path data-name="Path 18164" d="M287.084 205.516c.533.433-7.246 10.894-17.371 23.362l-6.132 7.44-.838 1.018-.9-.929c-7.906-8.146-13.3-14.2-12.922-14.579s6.431 5.016 14.579 12.922l-1.737.091 6.021-7.529c10.125-12.469 18.767-22.227 19.3-21.796z" transform="translate(-173.788 -117.969)" style="fill:#fff"/>
</svg>
